<?xml version="1.0" encoding="iso-8859-1"?>
<!-- Generator: Adobe Illustrator 19.0.0, SVG Export Plug-In . SVG Version: 6.00 Build 0)  -->
<svg version="1.1" id="Capa_1" xmlns="http://www.w3.org/2000/svg" xmlns:xlink="http://www.w3.org/1999/xlink" x="0px" y="0px"
	 viewBox="0 0 512 512" style="enable-background:new 0 0 512 512;" xml:space="preserve">
<g>
	<g>
		<path d="M422.097,372.884c-4.626-4.626-11.718-5.719-17.521-2.704C376.707,384.659,346.569,392,315,392
			c-107.523,0-195-87.477-195-195c0-31.569,7.341-61.707,21.82-89.576c3.016-5.805,1.921-12.896-2.704-17.521
			c-4.626-4.626-11.717-5.72-17.522-2.705C48.601,125.117,0,201.089,0,287c0,124.065,100.935,225,225,225
			c85.936,0,161.894-48.623,199.802-121.594C427.818,384.6,426.723,377.51,422.097,372.884z M225,482c-107.523,0-195-87.477-195-195
			c0-57.535,25.067-110.926,67.494-147.512C92.547,158.205,90,177.579,90,197c0,124.065,100.935,225,225,225
			c19.421,0,38.795-2.547,57.512-7.494C335.926,456.933,282.535,482,225,482z"/>
	</g>
</g>
<g>
	<g>
		<path d="M380.781,213.159l-57.798-24.142l-24.142-57.798C296.509,125.635,291.051,122,285,122c-6.051,0-11.509,3.635-13.841,9.219
			l-24.142,57.798l-57.798,24.142C183.635,215.491,180,220.949,180,227c0,6.051,3.635,11.509,9.219,13.841l57.798,24.142
			l24.142,57.798c2.332,5.584,7.79,9.219,13.841,9.219c6.051,0,11.509-3.635,13.841-9.219l24.142-57.798l57.798-24.142
			c5.584-2.332,9.219-7.79,9.219-13.841C390,220.949,386.365,215.491,380.781,213.159z M305.736,239.675
			c-3.643,1.521-6.539,4.417-8.06,8.06L285,278.082l-12.675-30.346c-1.521-3.643-4.417-6.539-8.06-8.06L233.918,227l30.347-12.675
			c3.643-1.521,6.539-4.417,8.06-8.06L285,175.918l12.675,30.346c1.521,3.643,4.417,6.539,8.06,8.06L336.082,227L305.736,239.675z"
			/>
	</g>
</g>
<g>
	<g>
		<path d="M502.557,63.067l-38.335-15.29l-15.29-38.335C446.658,3.741,441.139,0,435,0c-6.139,0-11.658,3.741-13.933,9.443
			l-15.343,38.468l-36.506,15.248C363.635,65.491,360,70.949,360,77s3.635,11.509,9.219,13.841l36.637,15.303l15.303,36.637
			c2.332,5.584,7.79,9.219,13.841,9.219c6.051,0,11.509-3.635,13.841-9.219l15.248-36.506l38.468-15.343
			C508.259,88.658,512,83.139,512,77S508.259,65.342,502.557,63.067z M447.121,80.745c-3.745,1.494-6.73,4.431-8.284,8.151
			L435,98.082l-3.836-9.185c-1.521-3.643-4.417-6.539-8.06-8.06L413.918,77l9.185-3.836c3.72-1.554,6.658-4.54,8.151-8.284
			L435,55.49l3.745,9.39c1.524,3.823,4.553,6.851,8.375,8.375L456.51,77L447.121,80.745z"/>
	</g>
</g>
<g>
</g>
<g>
</g>
<g>
</g>
<g>
</g>
<g>
</g>
<g>
</g>
<g>
</g>
<g>
</g>
<g>
</g>
<g>
</g>
<g>
</g>
<g>
</g>
<g>
</g>
<g>
</g>
<g>
</g>
</svg>
